<svg version="1.1" xmlns="http://www.w3.org/2000/svg" viewBox="295 40 482 482">
<rect x="295" y="40" width="482" height="482" fill="#000000"/>
<path fill="#ffffff" d="
M490.517517,244.996704
	C491.977753,245.258987 493.035461,246.033173 494.248169,245.406387
	C471.251801,233.038437 457.651917,217.791092 456.846436,203.224274
	C461.778320,200.999588 467.258301,201.360397 472.434387,201.073135
	C506.616089,199.176132 540.695251,199.706802 574.221436,207.791229
	C584.943420,210.376724 595.292542,214.013092 604.518372,220.359238
	C610.351929,224.371948 613.241821,229.775375 613.241760,236.812012
	C613.241638,250.145111 613.123474,263.480438 613.332764,276.810455
	C613.455139,284.606689 610.095764,290.210205 603.740173,294.298370
	C592.184509,301.731445 579.245728,305.469147 565.963928,308.124939
	C529.741638,315.367889 493.243011,315.978790 456.566223,312.570007
	C437.407593,310.789368 418.674255,307.210724 400.690887,300.252808
	C396.984161,298.818604 393.354462,297.009583 389.995850,294.888000
	C383.085938,290.523041 379.299011,284.650452 379.567627,275.840454
	C380.090607,258.689148 379.543762,241.508072 379.851624,224.346725
	C380.433868,191.889740 386.816589,160.820068 403.657501,132.602509
	C421.197388,103.213821 445.096954,81.368324 478.796753,72.152260
	C490.310760,69.003456 502.006348,66.521957 513.547058,63.350910
	C526.465942,59.801205 538.364929,62.930691 547.678650,73.200554
	C551.498352,77.412315 556.041870,80.199066 561.468018,81.791862
	C565.938721,83.104179 570.338928,84.663414 574.746948,86.181198
	C584.970520,89.701424 589.474060,95.294624 589.539978,104.464142
	C589.600830,112.930298 582.594543,122.520126 574.120789,125.297165
	C569.494263,126.813393 564.611938,127.132851 559.807068,127.087044
	C548.933533,126.983376 538.220886,128.339020 527.499878,129.867844
	C519.160400,131.057068 510.968170,129.908463 503.897400,125.439369
	C498.755646,122.189499 493.977264,122.286995 488.748779,123.974831
	C464.382233,131.840729 450.288239,148.980774 445.447235,173.608276
	C441.885345,191.728348 445.513428,208.732513 456.685547,223.764359
	C465.110229,235.099625 476.550415,241.756439 490.517517,244.996704
z"/>
<path fill="#ffffff" d="
M397.325439,362.860168
	C393.693939,361.076080 390.513794,359.295044 387.565582,357.079285
	C382.125488,352.990723 379.418396,347.837524 379.610107,340.819000
	C379.932892,329.003754 379.735901,317.173981 379.732635,305.350342
	C379.731659,301.811890 380.385803,298.507904 383.221985,294.520294
	C387.178101,302.503296 393.627167,306.675232 400.716278,310.043488
	C407.976776,313.493225 415.652100,315.747498 423.460205,317.437531
	C455.718597,324.419800 488.335907,326.082367 521.228516,323.990875
	C540.708008,322.752228 559.973450,320.345825 578.753601,314.877991
	C583.052612,313.626312 587.275818,312.001160 591.367615,310.175201
	C598.722595,306.893127 605.696899,303.010590 609.495422,295.088867
	C612.950439,297.373505 613.128235,300.670135 613.163696,303.690216
	C613.318176,316.844147 613.348328,330.002228 613.190308,343.155975
	C613.117065,349.251129 609.898621,353.803772 605.054321,357.337677
	C596.825134,363.340881 587.392029,366.667084 577.718018,369.184448
	C542.063354,378.462494 505.768555,379.745514 469.197784,377.548462
	C452.550018,376.548279 436.121002,374.292938 419.896423,370.426239
	C412.258759,368.605988 404.905029,366.007141 397.325439,362.860168
z"/>
<path fill="#ffffff" d="
M611.223389,361.468292
	C611.842285,363.024719 612.560120,364.256805 612.656677,365.535797
	C613.760437,380.153870 613.672974,394.799500 612.722168,409.404144
	C612.350281,415.116211 607.936157,418.778076 603.409363,421.776611
	C593.680847,428.220764 582.682007,431.613617 571.479248,434.220642
	C531.643372,443.490936 491.409363,444.316559 450.934387,439.512329
	C432.686035,437.346344 414.816315,433.737488 397.852783,426.378876
	C393.680511,424.569000 389.938324,422.129059 386.446960,419.280029
	C381.944458,415.605835 379.553314,411.040314 379.670654,404.989990
	C379.896606,393.336884 379.681580,381.675903 379.773071,370.019165
	C379.801331,366.420929 379.966827,362.725891 383.273743,360.159119
	C393.316467,374.278961 408.813141,377.880829 423.953491,381.446320
	C453.307678,388.359192 483.270813,389.721008 513.261902,388.474884
	C537.875671,387.452209 562.410339,384.944611 585.821228,376.335571
	C594.628784,373.096649 603.108643,369.258179 608.908142,361.335358
	C609.505127,360.519867 610.268555,360.517639 611.223389,361.468292
z"/>
<path fill="#ffffff" d="
M564.999146,481.248871
	C548.858765,480.803070 533.228027,480.019409 517.615845,482.116028
	C499.502411,484.548523 482.541718,489.845062 467.747559,500.976318
	C467.250854,501.350037 466.606354,501.527313 466.047058,501.788544
	C464.343353,500.119629 465.759308,498.864441 466.327576,497.671997
	C474.641479,480.226685 488.881683,469.638885 506.578827,463.135284
	C523.621399,456.872284 541.616516,455.374329 559.376953,452.706848
	C574.365417,450.455658 589.313477,448.009064 603.530396,442.437958
	C608.688965,440.416504 613.397949,437.574463 617.784058,434.232361
	C629.468018,425.329468 632.272888,410.873566 624.673645,398.165100
	C623.232666,395.755249 622.661926,393.404816 622.585571,390.657410
	C622.273132,379.403442 624.109558,367.951935 619.692871,357.041290
	C619.462158,356.471344 619.426025,355.624115 619.680176,355.085876
	C624.248596,345.412628 622.143311,335.093628 622.661865,325.031525
	C622.711670,324.064209 622.887024,323.103302 622.979492,322.342010
	C624.246460,321.524841 625.168701,321.951508 626.053772,322.418610
	C646.754272,333.342926 664.177246,347.940369 674.033569,369.555328
	C693.624451,412.518402 678.926758,458.890747 627.300598,474.552826
	C607.111206,480.677734 586.389282,481.694733 564.999146,481.248871
z"/>
</svg>
