<svg xmlns="http://www.w3.org/2000/svg" version="1.1" xmlns:xlink="http://www.w3.org/1999/xlink" width="320" height="320"><svg width="320" height="320" viewBox="0 0 320 320" fill="none" xmlns="http://www.w3.org/2000/svg">
<g clip-path="url(#clip0_6_2)">
<path d="M173.527 189.159H252.567V247.054C233.539 261.161 207.062 270.511 177.951 270.511C114.881 270.511 72.9543 223.661 72.9543 160V159.153C72.9543 99.89 116.247 49.9776 173.104 49.9776C212.396 49.9776 235.751 62.8141 259.593 83.144L294.071 41.9955C262.325 15.0519 229.213 0 175.316 0C82.1919 0 16 73.37 16 160V160.847C16 251.061 79.5898 320 176.162 320C230.904 320 274.555 297.911 305 271.782V141.788H173.527V189.126V189.159Z" fill="#38A2FF"></path>
</g>
<defs>
<clipPath id="SvgjsClipPath1005">
<rect width="320" height="320" fill="white"></rect>
</clipPath>
</defs>
</svg><style>@media (prefers-color-scheme: light) { :root { filter: none; } }
@media (prefers-color-scheme: dark) { :root { filter: none; } }
</style></svg>